@startuml

card Jpeg编码参数
card Video编码参数机制

package "可见光相机1" {
    card 相机参数1
    component 可将光相机数据流1
    相机参数1-[dashed]->可将光相机数据流1
    可将光相机数据流1-[dashed]->相机参数1
    可将光相机数据流1-->业务端点1

    card 算子组件1 [
    图像处理算子1
    ----
    图像处理算子1
    ----
    图像处理算子1
    ]

    card 算子组件2 [
    图像处理算子2
    ----
    图像处理算子2
    ]

    算子组件1-[dotted]->[图像处理流1]
    [图像处理流1]-[dotted]->算子组件1
    可将光相机数据流1->[图像处理流1]
    [图像处理流1]-->业务端点2

    算子组件2-[dotted]->[图像处理流2]
    [图像处理流2]-[dotted]->算子组件2
    可将光相机数据流1-->[图像处理流2]

    component Jpeg编码流1
    [Jpeg编码流1]-[dotted]->Jpeg编码参数
    Jpeg编码参数-[dotted]->[Jpeg编码流1]

    [图像处理流2]-->Jpeg编码流1
    Jpeg编码流1-->业务端点3

    [Video编码流1]-[dotted]->Video编码参数机制
    Video编码参数机制-[dotted]->[Video编码流1]
    [图像处理流2]-->[Video编码流1]
    [Video编码流1]-->业务端点4

    card 算子组件3 [
    算法处理算子1
    ----
    算法处理算子1
    ]
    算子组件3-[dotted]->[算法处理流1]
    [算法处理流1]-[dotted]->算子组件3
    [图像处理流1]-->[算法处理流1]
    [算法处理流1]-->业务端点5
    [算法处理流1]-->业务端点6

    interface "并行1"
}

package "可见光相机2" {
    card 相机参数2
    component 可将光相机数据流2
    相机参数2-[dashed]->可将光相机数据流2
    可将光相机数据流2-[dashed]->相机参数2

    card 算子组件4 [
    DIY图像处理算子3
    ----
    DIY图像处理算子3
    ]
    算子组件4-[dashed]->[图像处理流3]
    [图像处理流3]-[dashed]->算子组件4
    可将光相机数据流2->[图像处理流3]
    [图像处理流3]->业务端点7
    [图像处理流3]-->[Jpeg编码流2]
    [Jpeg编码流2]-[dotted]->Jpeg编码参数
    Jpeg编码参数-[dotted]->[Jpeg编码流2]
    [Jpeg编码流2]-->业务端点8
    [Video编码流2]-[dotted]->Video编码参数机制
    Video编码参数机制-[dotted]->[Video编码流2]
    [图像处理流3]-->[Video编码流2]
    [Video编码流2]-->业务端点9

    interface "并行2"
}

package "红外相机" {
    [红外相机数据流]-->[Jpeg编码流3]
    [Jpeg编码流3]-->业务端点10
    [Jpeg编码流3]-->业务端点11

    [Jpeg编码流3]-[dotted]->Jpeg编码参数
    Jpeg编码参数-[dotted]->[Jpeg编码流3]

    [红外相机数据流]->[图像处理流4]
    card 算子组件5 [
        DIY图像处理算子4
        ----
        DIY图像处理算子4
    ]
    算子组件5-[dashed]->[图像处理流4]
    [图像处理流4]-[dashed]->算子组件5
    [图像处理流4]->[算法处理流2]

    card 算子组件6 [
        DIY算法处理算子2
        ----
        DIY算法处理算子2
    ]
    算子组件6-[dashed]->[算法处理流2]
    [算法处理流2]-[dashed]->算子组件6
    [算法处理流2]-->业务端点12

}
@enduml